<svg width="210" height="40" viewBox="0 0 210 40" fill="none" xmlns="http://www.w3.org/2000/svg">
<g clip-path="url(#clip0_44_6)">
<path d="M35.213 11.501L35.206 6.288L25.586 0V4.022L31.931 8.2L31.936 11.402L28.988 13.398L26.977 11.931V9.446L23.7 7.204V11.727L18.505 14.915L18.495 23.335L14.822 25.403L12.937 23.926V21.488L15.169 19.959V19.939V16.166L11.152 18.854L8.081 16.856L5.276 18.693L9.659 21.694V23.536L6.5 25.674L3.277 23.492V16.23L8.062 12.991L8.066 9.875L14.203 13.827L19.361 10.394L16.216 8.559L14.159 9.947L9.677 6.983L14.731 4.036L19.11 6.603V2.775L14.736 0.211L4.794 6.008L4.787 11.223L0 14.465V25.257L4.787 28.499L4.794 33.714L14.414 40V35.981L8.069 31.803L8.064 28.601L11.012 26.605L13.023 28.072V30.557L16.3 32.798V28.275L21.569 25.088L21.628 16.667L25.178 14.599L27.063 16.076V18.514L24.831 20.043V20.063V23.837L28.848 21.148L31.919 23.146L34.724 21.309L30.34 18.306V16.466L33.5 14.329L36.723 16.511V23.772L31.939 27.012L31.934 30.127L25.797 26.173L20.639 29.584L23.784 31.416L25.841 30.055L30.323 33.019L25.269 35.966L20.89 33.399V37.225L25.264 39.789L35.206 33.995L35.213 28.779L40 25.537V14.743L35.213 11.501Z" fill="#AC6AFF"/>
<path d="M47.656 32V27.824H50.968V10.976H47.656V6.8H58.024C61.408 6.8 63.976 7.664 65.728 9.392C67.504 11.096 68.392 13.64 68.392 17.024V21.776C68.392 25.16 67.504 27.716 65.728 29.444C63.976 31.148 61.408 32 58.024 32H47.656ZM55.72 27.68H58.096C60.016 27.68 61.42 27.176 62.308 26.168C63.196 25.16 63.64 23.744 63.64 21.92V16.88C63.64 15.032 63.196 13.616 62.308 12.632C61.42 11.624 60.016 11.12 58.096 11.12H55.72V27.68ZM80.9926 32.504C79.2166 32.504 77.6206 32.144 76.2046 31.424C74.7886 30.704 73.6726 29.66 72.8566 28.292C72.0406 26.924 71.6326 25.28 71.6326 23.36V22.784C71.6326 20.864 72.0406 19.22 72.8566 17.852C73.6726 16.484 74.7886 15.44 76.2046 14.72C77.6206 14 79.2166 13.64 80.9926 13.64C82.7686 13.64 84.3646 14 85.7806 14.72C87.1966 15.44 88.3126 16.484 89.1286 17.852C89.9446 19.22 90.3526 20.864 90.3526 22.784V23.36C90.3526 25.28 89.9446 26.924 89.1286 28.292C88.3126 29.66 87.1966 30.704 85.7806 31.424C84.3646 32.144 82.7686 32.504 80.9926 32.504ZM80.9926 28.472C82.3846 28.472 83.5366 28.028 84.4486 27.14C85.3606 26.228 85.8166 24.932 85.8166 23.252V22.892C85.8166 21.212 85.3606 19.928 84.4486 19.04C83.5606 18.128 82.4086 17.672 80.9926 17.672C79.6006 17.672 78.4486 18.128 77.5366 19.04C76.6246 19.928 76.1686 21.212 76.1686 22.892V23.252C76.1686 24.932 76.6246 26.228 77.5366 27.14C78.4486 28.028 79.6006 28.472 80.9926 28.472ZM94.3955 32V6.8H110.236V11.12H99.1475V17.204H109.372V21.524H99.1475V32H94.3955ZM113.77 32V6.8H118.306V32H113.77ZM131.829 32.504C130.053 32.504 128.457 32.144 127.041 31.424C125.625 30.704 124.509 29.66 123.693 28.292C122.877 26.924 122.469 25.28 122.469 23.36V22.784C122.469 20.864 122.877 19.22 123.693 17.852C124.509 16.484 125.625 15.44 127.041 14.72C128.457 14 130.053 13.64 131.829 13.64C133.605 13.64 135.201 14 136.617 14.72C138.033 15.44 139.149 16.484 139.965 17.852C140.781 19.22 141.189 20.864 141.189 22.784V23.36C141.189 25.28 140.781 26.924 139.965 28.292C139.149 29.66 138.033 30.704 136.617 31.424C135.201 32.144 133.605 32.504 131.829 32.504ZM131.829 28.472C133.221 28.472 134.373 28.028 135.285 27.14C136.197 26.228 136.653 24.932 136.653 23.252V22.892C136.653 21.212 136.197 19.928 135.285 19.04C134.397 18.128 133.245 17.672 131.829 17.672C130.437 17.672 129.285 18.128 128.373 19.04C127.461 19.928 127.005 21.212 127.005 22.892V23.252C127.005 24.932 127.461 26.228 128.373 27.14C129.285 28.028 130.437 28.472 131.829 28.472ZM146.745 32L144.225 14.144H148.725L150.309 28.94H150.957L153.261 14.144H160.533L162.837 28.94H163.485L165.069 14.144H169.569L167.049 32H159.525L157.221 17.204H156.573L154.269 32H146.745ZM171.664 32L178.288 6.8H186.568L193.192 32H188.296L186.928 26.456H177.928L176.56 32H171.664ZM179.044 22.064H185.812L182.752 9.788H182.104L179.044 22.064ZM196.208 32V6.8H200.96V32H196.208Z" fill="white"/>
</g>
<defs>
<clipPath id="clip0_44_6">
<rect width="210" height="40" fill="white"/>
</clipPath>
</defs>
</svg>
